<?xml version="1.0" encoding="UTF-8"?> <svg xmlns="http://www.w3.org/2000/svg" width="145" height="227" viewBox="0 0 145 227" fill="none"> <path fill-rule="evenodd" clip-rule="evenodd" d="M62.0085 113.125V226.25H64.3455H66.6825V113.125V0H64.3455H62.0085V113.125ZM42.1854 165.905C39.1931 166.672 36.6754 168.762 35.4177 171.524C34.8809 172.703 34.7385 173.731 34.6431 177.109L34.5266 181.25H33.3107C32.1329 181.25 32.0948 181.284 32.0948 182.325C32.0948 183.341 32.1584 183.405 33.2633 183.497L34.4318 183.594L34.515 191.641L34.5982 199.688H35.6782H36.7583L36.8414 191.641L36.9246 183.594L45.8832 183.511L54.8417 183.428V191.558V199.688H56.0881H57.3345V186.911C57.3345 172.62 57.2943 172.293 55.1838 169.489C54.3612 168.397 53.4398 167.662 51.9083 166.879C49.9109 165.857 49.5694 165.784 46.4671 165.723C44.6464 165.686 42.7195 165.768 42.1854 165.905ZM9.58047 166.257C6.58038 167.016 3.57717 169.194 1.91915 171.813C0.0981531 174.69 0 175.527 0 188.182V199.688H1.558H3.116L3.12099 189.297C3.12441 181.762 3.2397 178.421 3.53978 177.142C4.31722 173.829 6.37908 171.244 9.33212 169.879C11.4819 168.886 15.2045 168.974 17.2938 170.069C19.3862 171.165 21.2823 173.193 22.3414 175.469L23.2142 177.344L23.3133 188.516L23.4124 199.688H24.9492H26.486V188.115C26.486 177.245 26.4471 176.427 25.842 174.625C24.6155 170.974 21.989 168.209 18.463 166.859C16.44 166.084 11.5707 165.754 9.58047 166.257ZM75.4054 166.542C71.8865 167.615 70.4167 169.81 70.4285 173.974C70.4369 177.005 71.0499 178.463 73.06 180.238C74.3647 181.39 75.2446 181.774 80.4481 183.463C86.9013 185.559 88.4316 186.42 89.5465 188.586C90.4333 190.308 90.4009 192.642 89.4689 194.154C87.8314 196.812 85.0158 197.484 75.4852 197.494L70.4217 197.5V198.594V199.688H77.4174C86.495 199.688 88.5805 199.244 90.8935 196.824C92.3624 195.288 92.8569 193.823 92.8569 191.009C92.8569 188.991 92.7126 188.27 92.0365 186.909C90.767 184.354 89.2642 183.452 82.681 181.297C79.1858 180.153 76.4882 179.076 75.6229 178.479C72.6587 176.433 72.085 172.648 74.3759 170.251C75.8108 168.748 77.5739 168.438 84.6562 168.438H90.9873V167.344V166.25L83.5868 166.277C79.5167 166.292 75.8348 166.411 75.4054 166.542ZM95.9729 182.969V199.688H97.2193H98.4657V191.562V183.438H107.191H115.915V191.562V199.688H117.318H118.72V182.969V166.25H117.473H116.227V173.594V180.938H107.346H98.4657V173.594V166.25H97.2193H95.9729V182.969ZM134.794 166.6C132.631 167.108 129.715 168.77 127.947 170.501C124.769 173.613 123.434 176.793 123.171 181.88C122.89 187.315 124.209 191.353 127.375 194.748C130.537 198.138 133.629 199.375 139.519 199.607L143.648 199.769V198.692V197.616L139.835 197.257C136.489 196.941 135.746 196.76 133.773 195.782C131.048 194.432 128.489 192.156 127.364 190.082C126.505 188.501 125.575 185.417 125.575 184.153V183.438H134.611H143.648V182.344V181.25H134.584H125.52L125.735 179.922C126.097 177.686 127.639 174.861 129.561 172.912C132.67 169.76 136.024 168.438 140.909 168.438H143.648V167.344V166.25L139.831 166.281C137.731 166.299 135.465 166.442 134.794 166.6ZM50.387 168.936C53.5594 170.468 54.7282 172.687 55.0355 177.76L55.2471 181.25H45.9611H36.6751L36.8851 177.785C37.1038 174.17 37.508 172.757 38.8145 171.039C41.1309 167.994 46.4378 167.029 50.387 168.936ZM111.138 209.583C111.023 209.698 110.93 210.12 110.93 210.521C110.93 211.123 111.093 211.25 111.865 211.25C112.696 211.25 112.799 211.146 112.799 210.312C112.799 209.539 112.673 209.375 112.072 209.375C111.672 209.375 111.252 209.469 111.138 209.583ZM83.8205 211.875C83.8205 213.229 83.7373 213.438 83.1973 213.438C82.7947 213.438 82.5741 213.646 82.5741 214.026C82.5741 214.352 82.8524 214.687 83.1973 214.778C83.7822 214.932 83.8205 215.204 83.8205 219.21C83.8205 221.558 83.9648 223.749 84.1415 224.08C84.636 225.007 86.1223 225.625 87.8557 225.625C89.3265 225.625 89.4293 225.574 89.4293 224.844C89.4293 224.118 89.3221 224.062 87.9196 224.062C85.5499 224.062 85.3785 223.708 85.3785 218.803V214.688H87.4039C89.2215 214.688 89.4293 214.623 89.4293 214.062C89.4293 213.502 89.2215 213.438 87.4039 213.438H85.3785V211.875C85.3785 210.417 85.3265 210.312 84.5995 210.312C83.8725 210.312 83.8205 210.417 83.8205 211.875ZM74.1671 213.655C73.5707 213.965 72.7643 214.697 72.3754 215.281C71.7192 216.266 71.6681 216.679 71.6681 220.984C71.6681 225.417 71.6961 225.625 72.2913 225.625C72.8774 225.625 72.9145 225.416 72.9164 222.109C72.9173 220.176 73.0616 218.075 73.237 217.442C73.9072 215.021 76.5633 213.945 78.3631 215.365C79.7538 216.462 80.0813 217.701 80.0813 221.865V225.625H80.889H81.6963L81.5901 220.96C81.4745 215.9 81.3193 215.409 79.374 213.953C78.2058 213.078 75.5662 212.927 74.1671 213.655ZM93.1034 213.434C90.5243 214.214 89.1177 216.368 89.1177 219.539C89.1177 221.768 89.3695 222.484 90.6358 223.856C91.704 225.013 92.6992 225.516 94.4411 225.778C98.0002 226.313 101.582 223.658 101.582 220.484C101.582 219.525 101.482 219.375 100.843 219.375C100.232 219.375 100.069 219.579 99.9025 220.547C99.5576 222.561 97.4016 224.372 95.3447 224.374C94.2457 224.375 92.1976 223.485 92.0119 222.926C91.9573 222.762 93.8733 221.298 96.2702 219.673C98.7088 218.02 100.632 216.504 100.637 216.23C100.651 215.553 99.1634 214.192 97.7746 213.61C96.5394 213.093 94.4878 213.015 93.1034 213.434ZM117.928 213.713C116.479 214.372 114.868 216.13 115.116 216.779C115.221 217.053 115.151 217.137 114.932 217.001C114.69 216.851 114.628 217.041 114.735 217.6C114.82 218.05 114.771 218.344 114.624 218.253C114.227 218.008 114.302 220.21 114.739 221.675C116.002 225.902 121.784 227.239 124.972 224.042C128.946 220.057 126.165 213.139 120.589 213.139C119.818 213.139 118.62 213.397 117.928 213.713ZM103.451 219.531V225.625H104.198C104.939 225.625 104.946 225.595 105.065 221.797C105.156 218.912 105.321 217.715 105.736 216.939C106.355 215.781 107.927 214.69 108.982 214.689C109.475 214.688 109.683 214.502 109.683 214.062C109.683 213.54 109.476 213.438 108.421 213.438C107.084 213.438 105.483 214.098 105.218 214.759C105.13 214.978 105.047 214.77 105.034 214.297C105.014 213.595 104.866 213.438 104.23 213.438H103.451V219.531ZM111.241 219.531V225.625H112.02H112.799V219.531V213.438H112.02H111.241V219.531ZM128.379 219.531V225.625H129.126C129.867 225.625 129.874 225.595 129.993 221.797C130.084 218.912 130.249 217.715 130.664 216.939C131.283 215.781 132.855 214.69 133.91 214.689C134.403 214.688 134.611 214.502 134.611 214.062C134.611 213.54 134.404 213.438 133.349 213.438C132.012 213.438 130.411 214.098 130.146 214.759C130.058 214.978 129.975 214.77 129.962 214.297C129.942 213.595 129.794 213.438 129.158 213.438H128.379V219.531ZM135.834 214.351C135.121 215.065 134.923 215.545 134.923 216.553C134.923 218.362 135.84 219.111 139.122 219.98C141.084 220.5 141.942 220.892 142.402 221.478C143.177 222.466 143.177 222.66 142.401 223.438C141.854 223.987 141.363 224.062 138.351 224.062H134.923V224.844V225.625L138.117 225.623C139.874 225.622 141.836 225.475 142.479 225.296C144.354 224.774 145.13 222.593 144.13 220.653C143.642 219.707 143.005 219.387 139.971 218.565C137.913 218.008 136.481 217.122 136.481 216.406C136.481 216.173 136.851 215.691 137.302 215.335C137.992 214.791 138.562 214.688 140.885 214.688C143.44 214.688 143.648 214.641 143.648 214.062C143.648 213.475 143.44 213.438 140.196 213.438C136.797 213.438 136.731 213.451 135.834 214.351ZM97.831 215.458C98.4417 216.012 98.3906 216.065 94.8973 218.48C92.942 219.832 91.1923 220.938 91.0091 220.938C90.6723 220.938 90.5545 220.18 90.6695 218.75C90.7595 217.631 91.7813 216.093 92.9454 215.323C94.189 214.501 96.8576 214.575 97.831 215.458ZM122.458 215.156C123.73 215.816 124.89 217.46 125.111 218.917C125.486 221.396 123.07 224.375 120.683 224.375C118.699 224.375 116.577 222.616 116.061 220.545C115.584 218.627 117.046 215.723 118.858 214.987C119.878 214.573 121.479 214.648 122.458 215.156Z" fill="black"></path> </svg> 